<?xml version="1.0" encoding="UTF-8" standalone="no"?>
<!-- Created with Inkscape (http://www.inkscape.org/) -->

<svg
   xmlns:dc="http://purl.org/dc/elements/1.1/"
   xmlns:cc="http://creativecommons.org/ns#"
   xmlns:rdf="http://www.w3.org/1999/02/22-rdf-syntax-ns#"
   xmlns:svg="http://www.w3.org/2000/svg"
   xmlns="http://www.w3.org/2000/svg"
   xmlns:sodipodi="http://sodipodi.sourceforge.net/DTD/sodipodi-0.dtd"
   xmlns:inkscape="http://www.inkscape.org/namespaces/inkscape"
   id="svg2"
   sodipodi:docname="calfmoo.svg"
   inkscape:export-filename="/home/kdm/Pictures/cow_for_linus.png"
   viewBox="0 0 128 128"
   sodipodi:version="0.32"
   inkscape:export-xdpi="8.7573166"
   version="1.0"
   inkscape:output_extension="org.inkscape.output.svg.inkscape"
   inkscape:export-ydpi="8.7573166"
   inkscape:version="0.92.3 (2405546, 2018-03-11)"
   width="128"
   height="128">
  <defs
     id="defs16" />
  <sodipodi:namedview
     id="base"
     bordercolor="#666666"
     inkscape:pageshadow="2"
     guidetolerance="10"
     pagecolor="#ffffff"
     gridtolerance="10000"
     inkscape:window-height="1027"
     inkscape:zoom="3.774352"
     objecttolerance="10"
     showgrid="true"
     borderopacity="1.0"
     inkscape:current-layer="layer1"
     inkscape:cx="42.363678"
     inkscape:cy="36.996101"
     inkscape:window-y="-8"
     inkscape:window-x="-8"
     inkscape:window-width="1920"
     inkscape:pageopacity="0.0"
     inkscape:document-units="px"
     inkscape:window-maximized="1">
    <inkscape:grid
       type="xygrid"
       id="grid4531" />
  </sodipodi:namedview>
  <g
     id="layer1"
     inkscape:label="Layer 1"
     inkscape:groupmode="layer"
     transform="translate(-176.93,-339.358)">
    <ellipse
       style="fill:#96633f;fill-opacity:1;stroke:#000000;stroke-width:2;stroke-linecap:round;stroke-linejoin:round;stroke-miterlimit:4;stroke-dasharray:none;stroke-opacity:1"
       id="path4550"
       cx="241.51921"
       cy="449.28403"
       rx="14.981955"
       ry="7.4909773" />
    <ellipse
       style="fill:#000000;fill-opacity:1;stroke:#000000;stroke-width:2;stroke-linecap:round;stroke-linejoin:round;stroke-miterlimit:4;stroke-dasharray:none;stroke-opacity:1"
       id="path4569"
       cx="241.51921"
       cy="448.29431"
       rx="9.9879704"
       ry="4.9939852" />
    <path
       id="path2426"
       style="fill:#cccccc;fill-opacity:1;fill-rule:evenodd;stroke:#000000;stroke-width:2;stroke-linecap:round;stroke-linejoin:round;stroke-miterlimit:4;stroke-dasharray:none;stroke-opacity:1"
       d="m 264.6114,348.358 c 0,0 7.60417,8.31999 -2.37714,18.06491 -9.98464,9.74493 -9.03246,-4.27818 -9.03246,-4.27818 0,0 1.90105,-13.31063 11.4096,-13.78673 z"
       inkscape:connector-curvature="0" />
    <path
       id="path2424"
       style="fill:#cccccc;fill-opacity:1;fill-rule:evenodd;stroke:#000000;stroke-width:2;stroke-linecap:round;stroke-linejoin:round;stroke-miterlimit:4;stroke-dasharray:none;stroke-opacity:1"
       d="m 219.90191,348.358 c 0,0 -7.60749,8.31999 2.37714,18.06491 9.98132,9.74493 9.03245,-4.27818 9.03245,-4.27818 0,0 -1.90103,-13.31063 -11.40959,-13.78673 z"
       inkscape:connector-curvature="0" />
    <path
       id="path2385"
       sodipodi:nodetypes="cccsccssscscssscscsssccsccscscsc"
       style="fill:#96633f;fill-opacity:1;stroke:#000000;stroke-width:2;stroke-linecap:round;stroke-linejoin:round;stroke-miterlimit:4;stroke-dasharray:none;stroke-opacity:1"
       d="m 230.82542,358.85868 c -0.45943,-0.007 -0.92555,0.0933 -1.36169,0.32295 l -7.99037,4.2016 c -1.39831,0.73579 -1.93101,2.45038 -1.19524,3.85204 0.23973,0.45611 0.58264,0.82234 0.98549,1.08203 -1.62804,1.38499 -3.05631,2.92979 -4.23157,4.60778 -1.33173,-3.81874 -10.2976,-5.26699 -20.49864,-3.21613 -10.5473,2.12078 -14.44594,7.18468 -13.61693,11.29972 0.82566,4.11505 6.06602,5.74309 16.61332,3.62231 6.2225,-1.25183 11.52279,-3.52575 14.64902,-6.02608 -0.60593,1.89439 -0.93554,3.882 -0.93554,5.92952 0,2.53363 0.50272,4.97735 1.41496,7.26459 -4.46462,5.23702 -7.11476,11.78247 -7.11476,18.88392 0,17.18596 15.55127,31.13916 34.70819,31.13916 19.1536,0 34.69488,-13.9532 34.69488,-31.13916 0,-7.10145 -2.65014,-13.6469 -7.11477,-18.88392 0.91224,-2.28724 1.41498,-4.73096 1.41498,-7.26459 0,-1.81447 -0.24972,-3.58569 -0.72913,-5.28362 3.19282,2.24063 8.09692,4.23822 13.77674,5.38018 10.54729,2.12078 15.77766,0.49274 16.60334,-3.62231 0.829,-4.11504 -3.05965,-9.17894 -13.60695,-11.29972 -9.68167,-1.94433 -18.25136,-0.73911 -20.23563,2.65347 -1.09202,-1.45825 -2.37715,-2.8166 -3.81874,-4.04512 0.39952,-0.25969 0.73911,-0.62926 0.9755,-1.08203 0.73578,-1.40166 0.20309,-3.11625 -1.19522,-3.85204 l -7.99039,-4.2016 c -1.39831,-0.73579 -3.11291,-0.20309 -3.84869,1.19522 -0.28633,0.54269 -0.37621,1.1353 -0.30297,1.69796 -2.72339,-0.68916 -5.6199,-1.06205 -8.62295,-1.06205 -3.0097,0 -5.90955,0.36955 -8.63626,1.06205 0.0732,-0.56266 -0.0166,-1.15527 -0.30297,-1.69796 -0.50606,-0.96217 -1.47489,-1.50485 -2.48701,-1.51817 z"
       inkscape:connector-curvature="0" />
    <path
       id="path2394"
       style="fill:#ff9999;fill-opacity:1;stroke:#000000;stroke-width:2;stroke-linecap:round;stroke-linejoin:round;stroke-miterlimit:4;stroke-dasharray:none;stroke-opacity:1"
       d="m 227.53272,410.5431 c -12.20863,0 -22.11336,8.30999 -22.11336,18.54433 0,10.23434 9.90473,18.531 22.11336,18.531 5.4834,0 10.50402,-1.67131 14.36936,-4.44463 3.86535,2.77332 8.88263,4.44463 14.36936,4.44463 12.20864,0 22.12336,-8.29666 22.12336,-18.531 0,-10.23434 -9.91472,-18.54433 -22.12336,-18.54433 -5.48673,0 -10.50401,1.68463 -14.36936,4.45796 -3.86534,-2.77333 -8.88596,-4.45796 -14.36936,-4.45796 z"
       inkscape:connector-curvature="0" />
    <path
       id="path2399"
       style="fill:#ffffff;stroke:#000000;stroke-width:2;stroke-linecap:round;stroke-linejoin:round;stroke-miterlimit:4;stroke-dasharray:none;stroke-opacity:1"
       d="m 234.87389,377.68934 c -4.85416,0 -8.79274,3.93859 -8.79274,8.79273 0,4.85417 3.93858,8.80275 8.79274,8.80275 3.16285,0 5.94284,-1.67466 7.49097,-4.18497 1.54814,2.51031 4.32813,4.18497 7.49098,4.18497 4.85415,0 8.79274,-3.94858 8.79274,-8.80275 0,-4.85414 -3.93859,-8.79273 -8.79274,-8.79273 -3.16285,0 -5.94284,1.67465 -7.49098,4.18163 -1.54813,-2.50698 -4.32812,-4.18163 -7.49097,-4.18163 z"
       inkscape:connector-curvature="0" />
    <path
       id="path2405"
       style="fill:#96633f;fill-opacity:1;stroke:#000000;stroke-width:2;stroke-linecap:round;stroke-linejoin:round;stroke-miterlimit:4;stroke-dasharray:none;stroke-opacity:1"
       d="m 232.79638,423.05136 c -2.92313,0 -5.29362,2.37381 -5.29362,5.29697 0,2.92313 2.37049,5.29361 5.29362,5.29361 2.92315,0 5.29696,-2.37048 5.29696,-5.29361 0,-2.92316 -2.37381,-5.29697 -5.29696,-5.29697 z m 19.13362,0 c -2.92314,0 -5.29361,2.37381 -5.29361,5.29697 0,2.92313 2.37047,5.29361 5.29361,5.29361 2.92315,0 5.29696,-2.37048 5.29696,-5.29361 0,-2.92316 -2.37381,-5.29697 -5.29696,-5.29697 z"
       inkscape:connector-curvature="0" />
    <ellipse
       id="path2420"
       style="fill:#2b1100;stroke:#000000;stroke-width:2;stroke-linecap:round;stroke-linejoin:round;stroke-miterlimit:4;stroke-dasharray:none;stroke-opacity:1"
       cx="233.56958"
       cy="384.37003"
       rx="3.4466066"
       ry="3.2089095" />
    <ellipse
       id="path2422"
       style="fill:#2b1100;stroke:#000000;stroke-width:2;stroke-linecap:round;stroke-linejoin:round;stroke-miterlimit:4;stroke-dasharray:none;stroke-opacity:1"
       cx="250.51585"
       cy="389.60605"
       rx="3.4466066"
       ry="3.2089095" />
  </g>
  <metadata
     id="metadata13">
    <rdf:RDF>
      <cc:Work>
        <dc:format>image/svg+xml</dc:format>
        <dc:type
           rdf:resource="http://purl.org/dc/dcmitype/StillImage" />
        <cc:license
           rdf:resource="http://creativecommons.org/publicdomain/zero/1.0/" />
        <dc:publisher>
          <cc:Agent
             rdf:about="http://openclipart.org/">
            <dc:title>Openclipart</dc:title>
          </cc:Agent>
        </dc:publisher>
        <dc:title></dc:title>
        <dc:date>2008-09-07T18:43:28</dc:date>
        <dc:description>A brown cow-face on a blue square</dc:description>
        <dc:source>https://openclipart.org/detail/19132/cow-for-linus-by-dynnamitt</dc:source>
        <dc:creator>
          <cc:Agent>
            <dc:title>dynnamitt</dc:title>
          </cc:Agent>
        </dc:creator>
        <dc:subject>
          <rdf:Bag>
            <rdf:li>animal</rdf:li>
            <rdf:li>cartoon</rdf:li>
            <rdf:li>cow</rdf:li>
            <rdf:li>face</rdf:li>
          </rdf:Bag>
        </dc:subject>
      </cc:Work>
      <cc:License
         rdf:about="http://creativecommons.org/publicdomain/zero/1.0/">
        <cc:permits
           rdf:resource="http://creativecommons.org/ns#Reproduction" />
        <cc:permits
           rdf:resource="http://creativecommons.org/ns#Distribution" />
        <cc:permits
           rdf:resource="http://creativecommons.org/ns#DerivativeWorks" />
      </cc:License>
    </rdf:RDF>
  </metadata>
</svg>
